<svg xmlns="http://www.w3.org/2000/svg" viewBox="0 0 1600 900">
  <defs>
    <linearGradient id="gymGradient" x1="0%" y1="0%" x2="100%" y2="100%">
      <stop offset="0%" stop-color="#071426" />
      <stop offset="50%" stop-color="#103054" />
      <stop offset="100%" stop-color="#05101d" />
    </linearGradient>
    <filter id="softBlur" x="-5%" y="-5%" width="110%" height="110%">
      <feGaussianBlur stdDeviation="24" />
    </filter>
    <radialGradient id="light" cx="50%" cy="35%" r="60%">
      <stop offset="0%" stop-color="#3ddaff" stop-opacity="0.5" />
      <stop offset="100%" stop-color="#05101d" stop-opacity="0" />
    </radialGradient>
  </defs>
  <rect width="1600" height="900" fill="url(#gymGradient)" />
  <g filter="url(#softBlur)">
    <ellipse cx="800" cy="350" rx="700" ry="260" fill="url(#light)" />
    <g fill="#193a5f">
      <rect x="180" y="520" width="320" height="160" rx="40" />
      <rect x="520" y="540" width="280" height="140" rx="40" />
      <rect x="820" y="520" width="310" height="150" rx="40" />
      <rect x="1140" y="540" width="320" height="150" rx="40" />
    </g>
    <g fill="#1f4a74">
      <rect x="250" y="300" width="120" height="160" rx="40" />
      <rect x="600" y="280" width="120" height="180" rx="40" />
      <rect x="950" y="300" width="120" height="160" rx="40" />
      <rect x="1250" y="290" width="120" height="180" rx="40" />
    </g>
    <g fill="#0c1f33">
      <circle cx="310" cy="280" r="90" />
      <circle cx="660" cy="260" r="100" />
      <circle cx="1010" cy="280" r="92" />
      <circle cx="1310" cy="270" r="96" />
    </g>
    <g fill="#0f253c">
      <rect x="250" y="230" width="120" height="60" rx="24" />
      <rect x="600" y="210" width="120" height="60" rx="24" />
      <rect x="950" y="230" width="120" height="60" rx="24" />
      <rect x="1250" y="220" width="120" height="60" rx="24" />
    </g>
    <g fill="#36f0ff">
      <rect x="250" y="240" width="120" height="30" rx="18" />
      <rect x="600" y="220" width="120" height="30" rx="18" />
      <rect x="950" y="240" width="120" height="30" rx="18" />
      <rect x="1250" y="230" width="120" height="30" rx="18" />
    </g>
    <g fill="#0d1b2b" opacity="0.7">
      <ellipse cx="310" cy="660" rx="150" ry="40" />
      <ellipse cx="660" cy="680" rx="140" ry="36" />
      <ellipse cx="1010" cy="660" rx="150" ry="40" />
      <ellipse cx="1310" cy="680" rx="150" ry="38" />
    </g>
  </g>
</svg>
